<svg xmlns="http://www.w3.org/2000/svg" width="20" height="20" viewBox="0 0 20 20" fill="none">
<path fill-rule="evenodd" clip-rule="evenodd" d="M15.796 1.04163C15.4354 1.04159 15.1047 1.04155 14.8357 1.07771C14.5394 1.11754 14.2263 1.21125 13.9688 1.46877C13.7113 1.72629 13.6176 2.03939 13.5778 2.33563C13.5416 2.60463 13.5416 2.93532 13.5417 3.296V14.2039C13.5416 14.5646 13.5416 14.8953 13.5778 15.1643C13.6176 15.4605 13.7113 15.7736 13.9688 16.0312C14.2263 16.2887 14.5394 16.3824 14.8357 16.4222C15.1047 16.4584 15.4354 16.4583 15.7961 16.4583H15.8706C16.2313 16.4583 16.562 16.4584 16.831 16.4222C17.1272 16.3824 17.4403 16.2887 17.6979 16.0312C17.9554 15.7736 18.0491 15.4605 18.0889 15.1643C18.1251 14.8953 18.1251 14.5646 18.125 14.2039V3.29601C18.1251 2.93533 18.1251 2.60464 18.0889 2.33563C18.0491 2.03939 17.9554 1.72629 17.6979 1.46877C17.4404 1.21125 17.1272 1.11754 16.831 1.07771C16.562 1.04155 16.2313 1.04159 15.8706 1.04163H15.796ZM14.8547 2.35152L14.8527 2.35266L14.8516 2.35469C14.8507 2.3563 14.8494 2.35906 14.8476 2.36327C14.8402 2.38142 14.8274 2.42172 14.8166 2.50219C14.793 2.67779 14.7917 2.92279 14.7917 3.3333V14.1666C14.7917 14.5771 14.793 14.8221 14.8166 14.9977C14.8274 15.0782 14.8402 15.1185 14.8476 15.1367C14.8494 15.1409 14.8507 15.1436 14.8516 15.1452L14.8527 15.1473L14.8547 15.1484C14.8554 15.1488 14.8563 15.1492 14.8574 15.1497C14.8589 15.1505 14.8609 15.1513 14.8633 15.1523C14.8815 15.1598 14.9218 15.1725 15.0022 15.1834C15.1778 15.207 15.4228 15.2083 15.8333 15.2083C16.2438 15.2083 16.4889 15.207 16.6645 15.1834C16.7449 15.1725 16.7852 15.1598 16.8034 15.1523C16.8076 15.1506 16.8103 15.1493 16.8119 15.1484L16.814 15.1473L16.8151 15.1452C16.816 15.1436 16.8173 15.1409 16.819 15.1367C16.8265 15.1185 16.8393 15.0782 16.8501 14.9977C16.8737 14.8221 16.875 14.5771 16.875 14.1666V3.3333C16.875 2.92279 16.8737 2.67779 16.8501 2.50219C16.8393 2.42172 16.8265 2.38142 16.819 2.36327C16.8173 2.35906 16.816 2.3563 16.8151 2.35469L16.814 2.35266L16.8119 2.35152C16.8103 2.35067 16.8076 2.34933 16.8034 2.3476C16.7852 2.34013 16.7449 2.32739 16.6645 2.31657C16.4889 2.29296 16.2438 2.29163 15.8333 2.29163C15.4228 2.29163 15.1778 2.29296 15.0022 2.31657C14.9218 2.32739 14.8815 2.34013 14.8633 2.3476C14.8591 2.34933 14.8563 2.35067 14.8547 2.35152Z" fill="#6B7280"/>
<path fill-rule="evenodd" clip-rule="evenodd" d="M9.96272 3.54163H10.0373C10.398 3.54159 10.7287 3.54155 10.9977 3.57771C11.2939 3.61754 11.607 3.71125 11.8645 3.96877C12.1221 4.22629 12.2158 4.53939 12.2556 4.83563C12.2918 5.10463 12.2917 5.43532 12.2917 5.79599V14.2039C12.2917 14.5646 12.2918 14.8953 12.2556 15.1643C12.2158 15.4605 12.1221 15.7736 11.8645 16.0312C11.607 16.2887 11.2939 16.3824 10.9977 16.4222C10.7287 16.4584 10.398 16.4583 10.0373 16.4583H9.96272C9.60206 16.4583 9.27133 16.4584 9.00233 16.4222C8.7061 16.3824 8.39299 16.2887 8.13548 16.0312C7.87796 15.7736 7.78425 15.4605 7.74442 15.1643C7.70825 14.8953 7.70829 14.5646 7.70834 14.2039V5.79601C7.70829 5.43533 7.70825 5.10464 7.74442 4.83563C7.78425 4.53939 7.87796 4.22629 8.13548 3.96877C8.39299 3.71125 8.7061 3.61754 9.00233 3.57771C9.27134 3.54155 9.60204 3.54159 9.96272 3.54163ZM9.01937 4.85266L9.0214 4.85152L9.01946 15.1473L9.01822 15.1452C9.01738 15.1436 9.01603 15.1409 9.0143 15.1367C9.00684 15.1185 8.99409 15.0782 8.98328 14.9977C8.95967 14.8221 8.95834 14.5771 8.95834 14.1666V5.8333C8.95834 5.42279 8.95967 5.17779 8.98328 5.00219C8.99409 4.92172 9.00684 4.88142 9.0143 4.86327C9.01603 4.85906 9.01738 4.8563 9.01822 4.85469L9.01937 4.85266ZM9.01946 15.1473L9.0214 4.85152L9.02458 4.84995L9.02998 4.8476C9.04813 4.84013 9.08843 4.82739 9.16889 4.81657C9.34449 4.79296 9.5895 4.79163 10 4.79163C10.4105 4.79163 10.6555 4.79296 10.8311 4.81657C10.9116 4.82739 10.9519 4.84013 10.97 4.8476C10.9742 4.84933 10.977 4.85067 10.9786 4.85152L10.9806 4.85266L10.9818 4.85469C10.9826 4.8563 10.984 4.85906 10.9857 4.86327C10.9932 4.88142 11.0059 4.92172 11.0167 5.00219C11.0403 5.17779 11.0417 5.42279 11.0417 5.8333V14.1666C11.0417 14.5771 11.0403 14.8221 11.0167 14.9977C11.0059 15.0782 10.9932 15.1185 10.9857 15.1367C10.984 15.1409 10.9826 15.1436 10.9818 15.1452L10.9806 15.1473L10.9786 15.1484C10.9775 15.149 10.976 15.1497 10.9738 15.1507C10.9727 15.1512 10.9715 15.1517 10.97 15.1523C10.9519 15.1598 10.9116 15.1725 10.8311 15.1834C10.6555 15.207 10.4105 15.2083 10 15.2083C9.5895 15.2083 9.34449 15.207 9.16889 15.1834C9.08843 15.1725 9.04813 15.1598 9.02998 15.1523C9.02577 15.1506 9.02301 15.1493 9.0214 15.1484L9.01946 15.1473Z" fill="#6B7280"/>
<path fill-rule="evenodd" clip-rule="evenodd" d="M4.12938 6.87496C3.7687 6.87492 3.43801 6.87488 3.169 6.91105C2.87277 6.95088 2.55966 7.04458 2.30214 7.3021C2.04462 7.55962 1.95092 7.87273 1.91109 8.16896C1.87492 8.43797 1.87496 8.76866 1.875 9.12934V14.2039C1.87496 14.5646 1.87492 14.8953 1.91109 15.1643C1.95092 15.4605 2.04462 15.7736 2.30214 16.0312C2.55966 16.2887 2.87277 16.3824 3.169 16.4222C3.43801 16.4584 3.7687 16.4583 4.12939 16.4583H4.20396C4.56464 16.4583 4.89534 16.4584 5.16435 16.4222C5.46058 16.3824 5.77368 16.2887 6.0312 16.0312C6.28872 15.7736 6.38243 15.4605 6.42226 15.1643C6.45842 14.8953 6.45838 14.5646 6.45834 14.2039V9.12935C6.45838 8.76867 6.45842 8.43797 6.42226 8.16896C6.38243 7.87273 6.28872 7.55962 6.0312 7.3021C5.77368 7.04458 5.46058 6.95088 5.16435 6.91105C4.89534 6.87488 4.56464 6.87492 4.20396 6.87496H4.12938ZM3.18807 8.18485L3.18604 8.186L3.18489 8.18802C3.18405 8.18964 3.1827 8.1924 3.18097 8.1966C3.1735 8.21475 3.16076 8.25505 3.14994 8.33552C3.12633 8.51112 3.12501 8.75613 3.12501 9.16663V14.1666C3.12501 14.5771 3.12633 14.8221 3.14994 14.9977C3.16076 15.0782 3.1735 15.1185 3.18097 15.1367C3.1827 15.1409 3.18405 15.1436 3.18489 15.1452L3.1857 15.1467L3.18807 15.1484C3.18968 15.1493 3.19244 15.1506 3.19664 15.1523C3.21479 15.1598 3.25509 15.1725 3.33556 15.1834C3.51116 15.207 3.75617 15.2083 4.16667 15.2083C4.57718 15.2083 4.82218 15.207 4.99779 15.1834C5.07825 15.1725 5.11855 15.1598 5.1367 15.1523C5.14091 15.1506 5.14367 15.1493 5.14528 15.1484L5.14731 15.1473L5.14846 15.1452L5.1503 15.1415L5.15237 15.1367C5.15984 15.1185 5.17258 15.0782 5.1834 14.9977C5.20701 14.8221 5.20834 14.5771 5.20834 14.1666V9.16663C5.20834 8.75613 5.20701 8.51112 5.1834 8.33552C5.17258 8.25505 5.15984 8.21475 5.15237 8.1966C5.15064 8.1924 5.1493 8.18964 5.14846 8.18802L5.14731 8.186L5.14528 8.18485C5.14367 8.18401 5.14091 8.18266 5.1367 8.18093C5.11855 8.17346 5.07825 8.16072 4.99779 8.1499C4.82218 8.12629 4.57718 8.12497 4.16667 8.12497C3.75617 8.12497 3.51116 8.12629 3.33556 8.1499C3.25509 8.16072 3.21479 8.17346 3.19664 8.18093C3.19244 8.18266 3.18968 8.18401 3.18807 8.18485Z" fill="#6B7280"/>
<path d="M2.50001 17.7083C2.15483 17.7083 1.87501 17.9881 1.87501 18.3333C1.87501 18.6785 2.15483 18.9583 2.50001 18.9583H17.5C17.8452 18.9583 18.125 18.6785 18.125 18.3333C18.125 17.9881 17.8452 17.7083 17.5 17.7083H2.50001Z" fill="#6B7280"/>
</svg>
