<svg xmlns="http://www.w3.org/2000/svg" width="40" height="40" viewBox="0 0 40 40" fill="none">
<path fill-rule="evenodd" clip-rule="evenodd" d="M13.75 15C13.75 11.5482 16.5482 8.74998 20 8.74998C23.4518 8.74998 26.25 11.5482 26.25 15C26.25 18.4518 23.4518 21.25 20 21.25C16.5482 21.25 13.75 18.4518 13.75 15ZM20 11.25C17.9289 11.25 16.25 12.9289 16.25 15C16.25 17.071 17.9289 18.75 20 18.75C22.071 18.75 23.75 17.071 23.75 15C23.75 12.9289 22.071 11.25 20 11.25Z" fill="currentcolor"/>
<path fill-rule="evenodd" clip-rule="evenodd" d="M2.08331 20C2.08331 10.1049 10.1049 2.08331 20 2.08331C29.8951 2.08331 37.9166 10.1049 37.9166 20C37.9166 29.8951 29.8951 37.9166 20 37.9166C10.1049 37.9166 2.08331 29.8951 2.08331 20ZM20 4.58331C11.4856 4.58331 4.58331 11.4856 4.58331 20C4.58331 24.2426 6.29709 28.085 9.07015 30.8725C9.37081 29.2506 9.96155 27.7215 11.1473 26.4918C12.9209 24.6525 15.7569 23.75 19.9999 23.75C24.2429 23.75 27.0789 24.6525 28.8525 26.4918C30.0383 27.7215 30.629 29.2507 30.9297 30.8727C33.7028 28.0851 35.4166 24.2427 35.4166 20C35.4166 11.4856 28.5144 4.58331 20 4.58331ZM28.6561 32.759C28.4863 30.7391 28.0477 29.2588 27.0529 28.2271C25.9705 27.1046 23.9648 26.25 19.9999 26.25C16.035 26.25 14.0293 27.1046 12.9469 28.2271C11.9521 29.2588 11.5135 30.739 11.3437 32.7589C13.8114 34.4363 16.7912 35.4166 20 35.4166C23.2087 35.4166 26.1884 34.4364 28.6561 32.759Z" fill="currentcolor"/>
</svg>
