<svg xmlns="http://www.w3.org/2000/svg" width="20" height="20" viewBox="0 0 20 20" fill="none">
<path opacity="0.5" d="M17.666 9.66663C17.666 14.085 14.0844 17.6666 9.66602 17.6666C5.24762 17.6666 1.66602 14.085 1.66602 9.66663C1.66602 5.24823 5.24762 1.66663 9.66602 1.66663C14.0844 1.66663 17.666 5.24823 17.666 9.66663Z" fill="#FFD233"/>
<path d="M8.6775 7.08163L8.81417 6.83663C9.34167 5.88996 9.60583 5.41663 10 5.41663C10.3942 5.41663 10.6583 5.88996 11.1858 6.83663L11.3225 7.08163C11.4725 7.35079 11.5475 7.48496 11.6642 7.57329C11.7808 7.66246 11.9275 7.69579 12.2183 7.76163L12.4833 7.82163C13.5083 8.05329 14.0208 8.16913 14.1425 8.56163C14.265 8.95329 13.915 9.36163 13.2167 10.1791L13.0358 10.3908C12.8375 10.6225 12.7383 10.7391 12.6942 10.8825C12.6483 11.0258 12.6633 11.1808 12.6942 11.4908L12.7208 11.7725C12.8267 12.8625 12.8792 13.4075 12.56 13.65C12.2408 13.8916 11.7617 13.6716 10.8017 13.23L10.5533 13.115C10.2808 12.99 10.145 12.9266 10 12.9266C9.85583 12.9266 9.71917 12.99 9.44667 13.115L9.19833 13.23C8.23834 13.6716 7.75917 13.8925 7.44 13.65C7.12084 13.4083 7.17333 12.8625 7.27917 11.7725L7.30584 11.4908C7.33667 11.1808 7.35167 11.0258 7.30584 10.8825C7.26167 10.7391 7.1625 10.6225 6.96417 10.3908L6.78334 10.1791C6.085 9.36246 5.735 8.95413 5.8575 8.56163C5.97917 8.16996 6.49084 8.05329 7.51584 7.82163L7.78167 7.76163C8.07334 7.69496 8.21834 7.66246 8.33584 7.57413C8.4525 7.48496 8.5275 7.34996 8.6775 7.08163Z" fill="#FFD233"/>
</svg>


