<svg xmlns="http://www.w3.org/2000/svg" width="24" height="24" viewBox="0 0 24 24" fill="none" stroke='#111827'>
<path fill-rule="evenodd" clip-rule="evenodd" d="M22 11.5524V16.7955C22 20.0469 22 21.6726 21.2251 22.3829C20.8556 22.7217 20.3891 22.9346 19.8921 22.9911C18.8502 23.1097 17.6334 22.0392 15.1999 19.8981C14.1243 18.9517 13.5864 18.4785 12.9642 18.3538C12.6577 18.2924 12.3423 18.2924 12.0358 18.3538C11.4136 18.4785 10.8757 18.9517 9.80006 19.8981C7.36655 22.0392 6.1498 23.1097 5.10786 22.9911C4.61093 22.9346 4.14445 22.7217 3.77489 22.3829C3 21.6726 3 20.0469 3 16.7955V11.5524C3 7.04935 3 4.79783 4.39124 3.39892C5.78249 2 8.02166 2 12.5 2C16.9783 2 19.2175 2 20.6088 3.39892C22 4.79783 22 7.04935 22 11.5524Z" />
</svg>