<svg width="current" height="current" viewBox="0 0 24 24" fill="none" xmlns="http://www.w3.org/2000/svg">
<g id="carbon:building">
<path id="Vector" d="M21 1.5H12C11.6022 1.5 11.2206 1.65804 10.9393 1.93934C10.658 2.22064 10.5 2.60218 10.5 3V10.5H3C2.60218 10.5 2.22064 10.658 1.93934 10.9393C1.65804 11.2206 1.5 11.6022 1.5 12V22.5H22.5V3C22.5 2.60218 22.342 2.22064 22.0607 1.93934C21.7794 1.65804 21.3978 1.5 21 1.5ZM6.75 21V15.75H9.75V21H6.75ZM21 21H11.25V15C11.25 14.8011 11.171 14.6103 11.0303 14.4697C10.8897 14.329 10.6989 14.25 10.5 14.25H6C5.80109 14.25 5.61032 14.329 5.46967 14.4697C5.32902 14.6103 5.25 14.8011 5.25 15V21H3V12H12V3H21V21Z" fill="current"/>
<path id="Vector_2" d="M13.5 6H15V7.5H13.5V6ZM18 6H19.5V7.5H18V6ZM13.5 10.5H15V12H13.5V10.5ZM18 10.5H19.5V12H18V10.5ZM13.5 15H15V16.5H13.5V15ZM18 15H19.5V16.5H18V15Z" fill="current"/>
</g>
</svg>
