<svg width="32" height="32" viewBox="0 0 32 32" fill="none" xmlns="http://www.w3.org/2000/svg">
<g id="icon_alarm">
<path id="Vector" fill-rule="evenodd" clip-rule="evenodd" d="M16.0001 1.66675C10.2931 1.66675 5.66674 6.29314 5.66674 12.0001V12.9389C5.66674 13.8681 5.39169 14.7765 4.87624 15.5497L3.34477 17.8469C1.56731 20.5131 2.92425 24.1371 6.01571 24.9803C7.02319 25.255 8.03918 25.4875 9.06106 25.6775L9.06359 25.6844C10.0889 28.4202 12.8293 30.3334 16 30.3334C19.1706 30.3334 21.9111 28.4202 22.9364 25.6844L22.9389 25.6776C23.9608 25.4875 24.9769 25.255 25.9844 24.9803C29.0759 24.1371 30.4328 20.5131 28.6554 17.8469L27.1239 15.5497C26.6085 14.7766 26.3334 13.8681 26.3334 12.9389V12.0001C26.3334 6.29314 21.707 1.66675 16.0001 1.66675ZM20.502 26.0494C17.5113 26.4067 14.4886 26.4067 11.498 26.0493C12.4459 27.4114 14.0947 28.3334 16 28.3334C17.9053 28.3334 19.554 27.4114 20.502 26.0494ZM7.66674 12.0001C7.66674 7.39771 11.3977 3.66675 16.0001 3.66675C20.6024 3.66675 24.3334 7.39771 24.3334 12.0001V12.9389C24.3334 14.263 24.7253 15.5574 25.4598 16.6591L26.9913 18.9563C28.0115 20.4867 27.2326 22.5668 25.4582 23.0507C19.2659 24.7396 12.7343 24.7396 6.54194 23.0507C4.7675 22.5668 3.98864 20.4867 5.00887 18.9563L6.54034 16.6591C7.27481 15.5574 7.66674 14.263 7.66674 12.9389V12.0001Z" fill="#1C274C"/>
</g>
</svg>
