<svg width="32" height="58" viewBox="0 0 32 58" fill="none" xmlns="http://www.w3.org/2000/svg">
<path d="M2.85742 5.35692C2.85742 4.50442 3.21472 3.68684 3.85071 3.08404C4.4867 2.48123 5.3493 2.14258 6.24873 2.14258H25.4661C26.3655 2.14258 27.2281 2.48123 27.8641 3.08404C28.5001 3.68684 28.8574 4.50442 28.8574 5.35692V26.7859C28.8574 27.6384 28.5001 28.4559 27.8641 29.0587C27.2281 29.6616 26.3655 30.0002 25.4661 30.0002H6.24873C5.3493 30.0002 4.4867 29.6616 3.85071 29.0587C3.21472 28.4559 2.85742 27.6384 2.85742 26.7859V5.35692Z" fill="#C1D5FA"/>
<path fill-rule="evenodd" clip-rule="evenodd" d="M12.4663 0C11.8667 0 11.2916 0.225769 10.8676 0.627639C10.4436 1.02951 10.2054 1.57456 10.2054 2.14289V3.21434C10.2054 3.78267 10.4436 4.32773 10.8676 4.7296C11.2916 5.13147 11.8667 5.35724 12.4663 5.35724H19.2489C19.8485 5.35724 20.4236 5.13147 20.8476 4.7296C21.2716 4.32773 21.5098 3.78267 21.5098 3.21434V2.14289C21.5098 1.57456 21.2716 1.02951 20.8476 0.627639C20.4236 0.225769 19.8485 0 19.2489 0L12.4663 0ZM10.2054 16.6074C9.7557 16.6074 9.32441 16.7768 9.00641 17.0782C8.68841 17.3796 8.50977 17.7884 8.50977 18.2146C8.50977 18.6409 8.68841 19.0496 9.00641 19.351C9.32441 19.6524 9.7557 19.8218 10.2054 19.8218H21.5098C21.9595 19.8218 22.3908 19.6524 22.7088 19.351C23.0268 19.0496 23.2054 18.6409 23.2054 18.2146C23.2054 17.7884 23.0268 17.3796 22.7088 17.0782C22.3908 16.7768 21.9595 16.6074 21.5098 16.6074H10.2054Z" fill="#2563EB"/>
<path d="M11.7695 47.1602H10.7617V50.3359C11.2422 50.2969 11.6719 50.2539 12.0508 50.207L12.0977 51.0508C11.1992 51.1914 10.2422 51.2852 9.22656 51.332C8.21094 51.3789 7.14844 51.4023 6.03906 51.4023L5.89844 50.4766L7.17578 50.4707V47.1602H6.19141V46.2578H11.7695V47.1602ZM14.6406 51.9531H13.5273V50.125H11.9219V49.2344H13.5273V48.2148H11.9219V47.3242H13.5273V45.4961H14.6406V51.9531ZM11.125 52.1523C11.8633 52.1523 12.498 52.2285 13.0293 52.3809C13.5605 52.5293 13.9668 52.748 14.248 53.0371C14.5332 53.3223 14.6758 53.668 14.6758 54.0742C14.6758 54.4688 14.5332 54.8086 14.248 55.0938C13.9668 55.3828 13.5586 55.6016 13.0234 55.75C12.4922 55.9023 11.8594 55.9766 11.125 55.9727C10.3906 55.9766 9.75586 55.9023 9.2207 55.75C8.68555 55.6016 8.27539 55.3828 7.99023 55.0938C7.70898 54.8086 7.57031 54.4688 7.57422 54.0742C7.57031 53.668 7.70898 53.3223 7.99023 53.0371C8.27539 52.748 8.68359 52.5293 9.21484 52.3809C9.75 52.2285 10.3867 52.1523 11.125 52.1523ZM11.125 53.0195C10.3477 53.0195 9.74414 53.1113 9.31445 53.2949C8.88867 53.4746 8.67578 53.7344 8.67578 54.0742C8.67578 54.4062 8.88867 54.6641 9.31445 54.8477C9.74414 55.0273 10.3477 55.1172 11.125 55.1172C11.8984 55.1172 12.5 55.0273 12.9297 54.8477C13.3594 54.6641 13.5742 54.4062 13.5742 54.0742C13.5742 53.7383 13.3594 53.4785 12.9297 53.2949C12.5 53.1113 11.8984 53.0195 11.125 53.0195ZM8.25391 50.4531C8.73047 50.4414 9.21094 50.4238 9.69531 50.4004V47.1602H8.25391V50.4531ZM24.4375 49.6797H26.0664V50.6055H24.4375V55.9844H23.3242V45.4961H24.4375V49.6797ZM21.6953 46.5977C21.6875 48.1992 21.2988 49.6367 20.5293 50.9102C19.7598 52.1836 18.5469 53.2305 16.8906 54.0508L16.2695 53.1836C17.582 52.5273 18.5957 51.7266 19.3105 50.7812C20.0293 49.8359 20.4453 48.75 20.5586 47.5234H16.7969V46.5977H21.6953Z" fill="#6B7280"/>
</svg>
