<svg
        xmlns="http://www.w3.org/2000/svg"
        width="100%"
        height="100%"
        viewBox="0 0 120 63"
        fill="none">
        <path
          fill-rule="evenodd"
          clip-rule="evenodd"
          d="M8.75 1.29817V58.8329H4.77457L0 63H50.9523H69.0476H120L115.593 58.8329H64.6403H55.7269H39.315V43.4647L21.4711 31.5029L21.4568 31.5175C19.6646 30.9062 19.5297 32.1327 19.4422 32.928C19.4291 33.0471 19.417 33.1565 19.4006 33.2486L19.3962 33.2489V58.8329H13.558V8.67737L24.2042 15.7051V29.6439L28.3253 32.2203V11.4885L10.7923 0.15832C9.43078 -0.387715 8.75001 0.598536 8.75 1.29817ZM23.8608 58.8329H34.8504V45.9244L23.8608 38.5452V58.8329ZM44.6353 28.9485C44.6441 33.0654 42.1282 35.4933 38.7941 35.4933C35.4425 35.4933 32.9442 33.0566 32.953 28.9485C32.9442 24.8315 35.4425 22.4036 38.7941 22.4036C42.1282 22.4036 44.6441 24.8315 44.6353 28.9485ZM35.2578 28.9485C35.249 31.8602 36.7181 33.4349 38.7941 33.4349C40.879 33.4349 42.3393 31.8602 42.3305 28.9485C42.3393 26.0367 40.879 24.4621 38.7941 24.4621C36.7181 24.4621 35.249 26.0367 35.2578 28.9485ZM51.4088 25.764V27.4882H49.4383V35.3174H47.1863V27.4882H45.7613V25.764H47.1863V24.8491C47.1863 22.993 48.3387 21.9813 50.1773 21.9813C50.6963 21.9813 51.1801 22.0341 51.6024 22.1221V23.8991C51.2759 23.8524 51.0251 23.8401 50.8558 23.8318L50.7931 23.8287C49.887 23.8375 49.4295 24.1894 49.4383 25.0602V25.764H51.4088ZM57.8481 25.764V27.4882H55.8776V35.3174H53.6256V27.4882H52.2006V25.764H53.6256V24.8491C53.6256 22.993 54.778 21.9813 56.6166 21.9813C57.1356 21.9813 57.6194 22.0341 58.0417 22.1221V23.8991C57.7153 23.8524 57.4644 23.8401 57.2951 23.8318L57.2324 23.8287C56.3263 23.8375 55.8688 24.1894 55.8776 25.0602V25.764H57.8481ZM59.4492 35.3174V25.764H61.7012V35.3174H59.4492ZM59.2908 23.1777C59.2908 22.5092 59.8802 21.9638 60.5928 21.9638C61.3053 21.9638 61.8947 22.5092 61.8947 23.1777C61.8947 23.8551 61.3053 24.4005 60.5928 24.4093C59.8802 24.4005 59.2908 23.8551 59.2908 23.1777ZM68.0173 35.5109C65.1671 35.5109 63.4429 33.47 63.4429 30.5847C63.4429 27.6553 65.2199 25.6408 68.0173 25.6408C70.3309 25.6408 71.9583 26.9956 72.1166 29.054H69.9702C69.7943 28.1391 69.1257 27.4442 68.0349 27.4354C66.645 27.4442 65.7125 28.6054 65.7125 30.5319C65.7125 32.5024 66.6274 33.6724 68.0349 33.6812C69.0289 33.6724 69.7679 33.0918 69.9702 32.0625H72.1166C71.9495 34.077 70.4188 35.5109 68.0173 35.5109ZM78.0457 35.5109C75.1692 35.5109 73.401 33.5932 73.401 30.6023C73.401 27.6465 75.1955 25.6408 77.9226 25.6408C80.2625 25.6408 82.2858 27.1099 82.2858 30.4615V31.1653H75.6178C75.653 32.7927 76.6118 33.7603 78.0633 33.7515C79.0486 33.7603 79.7083 33.3381 79.9986 32.7663H82.1978C81.7932 34.4201 80.2625 35.5109 78.0457 35.5109ZM75.6266 29.6346H80.1394C80.1306 28.3327 79.2509 27.3826 77.9578 27.3826C76.6118 27.3826 75.7058 28.4206 75.6266 29.6346ZM86.2796 29.7226V35.3174H84.0276V25.764H86.174V27.3826H86.2972C86.7282 26.3182 87.7047 25.6408 89.1298 25.6408C91.1091 25.6408 92.411 26.9428 92.4022 29.23V35.3174H90.1678V29.5818C90.1678 28.2975 89.4728 27.5322 88.3029 27.541C87.1153 27.5322 86.2796 28.3327 86.2796 29.7226ZM98.7887 35.5109C95.9121 35.5109 94.144 33.5932 94.144 30.6023C94.144 27.6465 95.9385 25.6408 98.6656 25.6408C101.006 25.6408 103.029 27.1099 103.029 30.4615V31.1653H96.3608C96.396 32.7927 97.3548 33.7603 98.8063 33.7515C99.7916 33.7603 100.451 33.3381 100.742 32.7663H102.941C102.536 34.4201 101.006 35.5109 98.7887 35.5109ZM96.3696 29.6346H100.882C100.874 28.3327 99.9939 27.3826 98.7007 27.3826C97.3548 27.3826 96.4487 28.4206 96.3696 29.6346ZM104.771 35.3174V25.764H106.952V27.3474H107.058C107.401 26.2478 108.316 25.6232 109.415 25.6232C109.662 25.6232 110.014 25.6496 110.225 25.676V27.7521C110.022 27.6817 109.556 27.6201 109.187 27.6113C107.937 27.6201 107.023 28.4822 107.023 29.6874V35.3174H104.771ZM57.7733 44.124C57.7733 46.1438 58.9802 47.5724 60.9753 47.5724C62.6564 47.5724 63.7279 46.5686 63.8449 45.1585H62.3424C62.2007 45.879 61.6835 46.2854 60.9877 46.2915C60.0024 46.2854 59.362 45.4664 59.362 44.087C59.362 42.7385 60.0147 41.9257 60.9877 41.9195C61.7512 41.9257 62.2192 42.4121 62.3424 43.0525H63.8449C63.734 41.6116 62.5948 40.6633 60.9753 40.6633C59.0172 40.6633 57.7733 42.0734 57.7733 44.124ZM64.7439 44.124C64.7439 46.1869 65.9939 47.5724 67.946 47.5724C69.9042 47.5724 71.1542 46.1869 71.148 44.124C71.1542 42.0427 69.9042 40.6633 67.946 40.6633C65.9939 40.6633 64.7439 42.0427 64.7439 44.124ZM67.9583 46.3162C66.8684 46.3162 66.3326 45.3371 66.3326 44.1117C66.3326 42.8863 66.8684 41.901 67.9583 41.9072C69.0297 41.901 69.5655 42.8863 69.5593 44.1117C69.5655 45.3371 69.0297 46.3162 67.9583 46.3162ZM72.3673 40.7495V47.4369H73.9437V43.3727C73.9437 42.5414 74.4979 41.9811 75.1752 41.9811C75.8464 41.9811 76.3021 42.4306 76.3083 43.1264V47.4369H77.8354V43.2619C77.8354 42.5045 78.2849 41.9811 79.0546 41.9811C79.6951 41.9811 80.2 42.3567 80.2 43.188V47.4369H81.7641V42.9417C81.7702 41.4515 80.9081 40.6633 79.6827 40.6633C78.7098 40.6633 77.9647 41.1436 77.6753 41.8826H77.6014C77.3489 41.1251 76.6962 40.6633 75.791 40.6633C74.9043 40.6633 74.2331 41.119 73.956 41.8826H73.8698V40.7495H72.3673ZM83.2666 40.7495V49.9493H84.843V46.3777H84.9046C85.1509 46.8704 85.6743 47.5539 86.8258 47.56C88.4022 47.5539 89.5783 46.2977 89.5845 44.0994C89.5783 41.8702 88.3652 40.6633 86.8258 40.6633C85.6373 40.6633 85.1447 41.3715 84.9046 41.8456H84.806V40.7495H83.2666ZM86.3947 46.2669C85.3787 46.2669 84.8122 45.3925 84.806 44.087C84.8122 42.7878 85.3664 41.9503 86.3947 41.9441C87.4477 41.9503 87.9835 42.8432 87.9835 44.087C87.9835 45.3494 87.4354 46.2669 86.3947 46.2669ZM92.9959 43.5328C91.7582 43.6129 90.5081 44.0501 90.5081 45.5526C90.5081 46.8765 91.4749 47.5724 92.7496 47.5724C93.8026 47.5724 94.4245 47.0797 94.7201 46.5132H94.7693V47.4369H96.2719V42.9663C96.2719 41.1867 94.8063 40.6633 93.5378 40.6633C91.8629 40.6633 90.8407 41.5192 90.7298 42.6584H92.2447C92.3678 42.1781 92.7989 41.8579 93.5008 41.8579C94.2829 41.8579 94.7078 42.2397 94.7078 42.9048L94.7139 43.4405C94.4184 43.4528 93.4639 43.4959 92.9959 43.5328ZM93.156 46.4147C92.4971 46.4147 92.023 46.1191 92.023 45.5403C92.023 44.9553 92.4971 44.6413 93.2422 44.5797C93.5563 44.555 94.4307 44.4996 94.7139 44.4873L94.7201 45.0353C94.7201 45.7866 94.1105 46.4147 93.156 46.4147ZM99.3261 47.4369V43.5205C99.3261 42.5476 99.9111 41.9872 100.742 41.9934C101.561 41.9872 102.048 42.523 102.048 43.422V47.4369H103.612V43.1757C103.618 41.5747 102.707 40.6633 101.321 40.6633C100.324 40.6633 99.6402 41.1375 99.3384 41.8826H99.2522V40.7495H97.7497V47.4369H99.3261ZM105.004 49.9123C105.207 49.937 105.502 49.9431 105.816 49.9493C107.073 49.9431 107.775 49.315 108.156 48.2497L110.841 40.7495H109.179L107.627 45.7989H107.553L106.001 40.7495H104.339L106.777 47.5724L106.642 47.9295C106.371 48.65 106.05 48.6746 105.669 48.6808C105.613 48.6791 105.553 48.6779 105.492 48.6767C105.323 48.6733 105.144 48.6697 105.004 48.6561V49.9123Z"
          fill="#2563EB"
        />
      </svg>
